<?xml version="1.0" encoding="utf-8"?>
<svg xmlns="http://www.w3.org/2000/svg"
	xmlns:xlink="http://www.w3.org/1999/xlink"
	width="9px" height="7px" viewBox="0 0 9 7">
<path fillRule="evenodd" d="M 8.9 1.95C 8.9 1.95 4.87 5.9 4.87 5.9 4.87 5.9 4.87 5.9 4.87 5.9 4.87 5.9 3.8 6.94 3.8 6.94 3.8 6.94 2.74 5.9 2.74 5.9 2.74 5.9 2.74 5.9 2.74 5.9 2.74 5.9 0.92 4.12 0.92 4.12 0.92 4.12 1.98 3.08 1.98 3.08 1.98 3.08 3.8 4.86 3.8 4.86 3.8 4.86 7.84 0.91 7.84 0.91 7.84 0.91 8.9 1.95 8.9 1.95Z" fill="rgb(255,255,255)"/></svg>