<?xml version="1.0" encoding="utf-8"?>
<svg xmlns="http://www.w3.org/2000/svg"
	xmlns:xlink="http://www.w3.org/1999/xlink"
	width="7px" height="7px" viewBox="0 0 7 7">
<path fillRule="evenodd" d="M 6.8 1.99C 6.8 1.99 5.76 0.95 5.76 0.95 5.76 0.95 3.78 2.92 3.78 2.92 3.78 2.92 1.81 0.95 1.81 0.95 1.81 0.95 0.77 1.99 0.77 1.99 0.77 1.99 2.74 3.96 2.74 3.96 2.74 3.96 0.77 5.94 0.77 5.94 0.77 5.94 1.81 6.98 1.81 6.98 1.81 6.98 3.78 5 3.78 5 3.78 5 5.76 6.98 5.76 6.98 5.76 6.98 6.8 5.94 6.8 5.94 6.8 5.94 4.82 3.96 4.82 3.96 4.82 3.96 6.8 1.99 6.8 1.99Z" fill="rgb(255,255,255)"/></svg>